<svg xmlns="http://www.w3.org/2000/svg" width="30" height="30" fill="none" viewBox="0 0 30 30">
  <path fill="#92BC2C" d="M30 15c0 8.284-6.716 15-15 15-8.284 0-15-6.716-15-15C0 6.716 6.716 0 15 0c8.284 0 15 6.716 15 15Z"/>
  <path fill="#fff" fill-rule="evenodd" d="M17.694 7.016a.037.037 0 0 1 .05-.01l1.137.796c.017.012.02.035.009.051l-1.581 2.258c.768.246 1.292.511 1.292.511s-1.28 2.202-3.451 2.202c-2.171 0-3.714-2.052-3.714-2.052s.547-.35 1.358-.649l-1.735-2.067a.037.037 0 0 1 .005-.052l1.062-.891a.037.037 0 0 1 .052.004l2.196 2.618a5.1 5.1 0 0 1 .573-.034c.278 0 .555.022.826.057l1.92-2.742Zm.43 5.912c.579-.414 1.455-1.494 1.455-1.494s2.24 1.775 2.24 5.538c0 3.763-3.872 6.028-3.872 6.028s-1.85-1.868-2.304-4.237c-.454-2.368.672-4.997.672-4.997s1.229-.424 1.808-.838Zm-6.24 0c-.58-.414-1.457-1.494-1.457-1.494s-2.24 1.775-2.24 5.538C8.188 20.735 12.06 23 12.06 23s1.85-1.868 2.304-4.237c.454-2.368-.671-4.997-.671-4.997s-1.23-.424-1.809-.838Z" clip-rule="evenodd"/>
</svg>
