<svg xmlns="http://www.w3.org/2000/svg" width="30" height="30" fill="none" viewBox="0 0 30 30">
  <path fill="#0C69C8" d="M30 15c0 8.284-6.716 15-15 15-8.284 0-15-6.716-15-15C0 6.716 6.716 0 15 0c8.284 0 15 6.716 15 15Z"/>
  <path fill="#fff" fill-rule="evenodd" d="M15.772 14.965c.108-.066.2-.205.275-.359.976.4 1.662 1.342 1.662 2.442 0 1.461-1.21 2.645-2.705 2.645-.613 0-1.178-.2-1.632-.536a6.4 6.4 0 0 1-.371-.193c-.156-.086-.258-.142-.321-.133-.187.025-.133.197-.084.353.034.106.065.204.017.245-.05.043-.214-.113-.405-.295-.26-.248-.57-.544-.717-.455-.116.07-.004.261.134.495l.01.017c.058.099.126.2.187.291.126.187.226.337.176.363-.061.03-.486-.256-.843-.654-.139-.153-.272-.32-.397-.474-.272-.34-.498-.621-.626-.588-.153.04-.037.356.133.66.08.142.173.287.254.412.126.195.222.343.187.361-.046.024-.458-.377-.738-.883a9.526 9.526 0 0 1-.419-.902c-.122-.292-.213-.51-.274-.531-.208-.076-.208.35-.125.964.011.08.028.164.048.25.812 2.627 3.306 4.54 6.257 4.54 3.61 0 6.536-2.862 6.536-6.393 0-3.36-2.65-6.115-6.018-6.373.004-.158.086-.472.086-.472s.595-1.439.626-1.746l.008-.066c.037-.332.105-.95-.426-.95-.284 0-.415.211-.566.452-.058.093-.12.19-.192.282-.527.658-1.414 1.48-1.916 1.918-1.063.926-2.105 1.686-2.713 2.13a8.044 8.044 0 0 0-.52.394c-.436.425-1.996 3.24-1.996 3.24s-.505.902-.325 1.085c.179.183.611.141.611.141s5.811-1.332 6.331-1.438c.14-.028.24-.044.315-.057.206-.034.243-.04.476-.182Zm-4.108-1.713c-.312.296-.83 1.004-.83 1.004s.962.06 1.491-.444c.53-.503.408-1.361.408-1.361s-.758.505-1.07.801Z" clip-rule="evenodd"/>
</svg>
