<svg xmlns="http://www.w3.org/2000/svg" width="30" height="30" fill="none" viewBox="0 0 30 30">
  <path fill="#F2D94E" d="M30 15c0 8.284-6.716 15-15 15-8.284 0-15-6.716-15-15C0 6.716 6.716 0 15 0c8.284 0 15 6.716 15 15Z"/>
  <path fill="#fff" fill-rule="evenodd" d="M11.768 7.018A.014.014 0 0 1 11.78 7h5.62c.006 0 .012.004.013.01l2.581 8.34a.014.014 0 0 1-.013.017h-3.74a.007.007 0 0 0-.008.009l2.146 7.553c.004.015-.015.024-.024.012l-8.338-11.089a.014.014 0 0 1 .01-.022h3.396a.007.007 0 0 0 .007-.009l-1.662-4.803Z" clip-rule="evenodd"/>
</svg>
