<svg xmlns="http://www.w3.org/2000/svg" width="30" height="30" fill="none" viewBox="0 0 30 30">
  <path fill="#EE90E6" d="M30 15c0 8.284-6.716 15-15 15-8.284 0-15-6.716-15-15C0 6.716 6.716 0 15 0c8.284 0 15 6.716 15 15Z"/>
  <path fill="#fff" fill-rule="evenodd" d="m10.21 19.687 2.566-.744 2.217 4.052c.003.006.01.006.013 0l2.217-4.052 2.566.744a.008.008 0 0 0 .01-.01l-.745-2.515 3.942-2.156a.008.008 0 0 0 0-.013l-3.974-2.173.777-2.626a.008.008 0 0 0-.01-.009l-2.626.762-2.157-3.943a.008.008 0 0 0-.013 0l-2.156 3.943-2.627-.762a.008.008 0 0 0-.01.01l.777 2.625-3.973 2.173a.008.008 0 0 0 0 .013l3.941 2.156-.744 2.515a.008.008 0 0 0 .01.01Zm1.992-4.66 1.818.995.994 1.818c.003.005.01.005.013 0l.995-1.818 1.818-.995a.008.008 0 0 0 0-.013l-1.818-.994-.995-1.818a.008.008 0 0 0-.013 0l-.994 1.818-1.818.994a.008.008 0 0 0 0 .013Z" clip-rule="evenodd"/>
</svg>
