<svg xmlns="http://www.w3.org/2000/svg" width="30" height="30" fill="none" viewBox="0 0 30 30">
  <path fill="#D3425F" d="M30 15c0 8.284-6.716 15-15 15-8.284 0-15-6.716-15-15C0 6.716 6.716 0 15 0c8.284 0 15 6.716 15 15Z"/>
  <path fill="#fff" fill-rule="evenodd" d="M9.757 8.33a1.766 1.766 0 0 1 3.19-.53h.515a1.765 1.765 0 0 1 2.886.533h.432a1.765 1.765 0 0 1 2.555.8h1.174c.01 0 .02.003.028.008a1.765 1.765 0 0 1 1.928 1.757v5.388l-.003.096C22.356 20.055 19.055 23 14.998 23c-4.124 0-7.467-3.044-7.467-6.8 0-1.813.78-3.46 2.049-4.679-.003 1.767.026 3.594.164 3.563.369-.084.08-5.558.013-6.754Z" clip-rule="evenodd"/>
</svg>
