<svg xmlns="http://www.w3.org/2000/svg" width="30" height="30" fill="none" viewBox="0 0 30 30">
  <path fill="#A1BBEC" d="M30 15c0 8.284-6.716 15-15 15-8.284 0-15-6.716-15-15C0 6.716 6.716 0 15 0c8.284 0 15 6.716 15 15Z"/>
  <path fill="#fff" fill-rule="evenodd" d="M12.585 21.93c2.344 0 4.35-1.303 5.179-3.15.01-.023-3.326.867-3.22.552.048-.14 2.093-.887 3.582-1.758.857-.501 1.251-1.562 1.251-1.562s-1.442.701-2.172.879c-1.47.358-2.763.32-2.763.282 0-.08 2.148-.489 5.134-2.308 1.404-.856 1.786-2.33 1.786-2.33s-1.544.92-2.478 1.223c-2.213.72-4.234.937-4.234.84 0-.21 1.778-.698 3.663-1.611.98-.475 1.829-1.095 2.812-1.785 1.61-1.13 1.875-3.14 1.875-3.14s-1.587 1.024-2.362 1.364c-3.196 1.403-6.018 2.139-8.053 2.298C9.513 11.964 7 14.108 7 16.891c0 2.782 2.5 5.038 5.585 5.038Z" clip-rule="evenodd"/>
</svg>
