<svg xmlns="http://www.w3.org/2000/svg" width="30" height="30" fill="none" viewBox="0 0 30 30">
  <path fill="#5F6DBC" d="M30 15c0 8.284-6.716 15-15 15-8.284 0-15-6.716-15-15C0 6.716 6.716 0 15 0c8.284 0 15 6.716 15 15Z"/>
  <path fill="#fff" fill-rule="evenodd" d="M18.53 22.945c-1.444.073-3.096.073-3.657 0C10.493 22.368 7 19.166 7 14.838 7 10.509 10.582 7 15 7s8 3.509 8 7.838a7.72 7.72 0 0 1-2.048 5.237c-.346.377.128.64.61.91.473.263.953.53.674.912-.307.42-1.974.959-3.706 1.048Zm-4.655-9.087c0 .676-.56 1.224-1.25 1.224s-1.25-.548-1.25-1.224c0-.454.252-.85.626-1.061a1.1 1.1 0 0 0 1.101 1.06h.773Zm3.874-1.061a1.102 1.102 0 0 1-1.101 1.06h-.773c0 .677.56 1.225 1.25 1.225s1.25-.548 1.25-1.224c0-.454-.252-.85-.626-1.061Z" clip-rule="evenodd"/>
</svg>
