<svg xmlns="http://www.w3.org/2000/svg" width="30" height="30" fill="none" viewBox="0 0 30 30">
  <path fill="#5FBD58" d="M30 15c0 8.284-6.716 15-15 15-8.284 0-15-6.716-15-15C0 6.716 6.716 0 15 0c8.284 0 15 6.716 15 15Z"/>
  <path fill="#fff" fill-rule="evenodd" d="M10.044 20.77a7.257 7.257 0 0 1-.163-10.42c2.834-2.834 11.864-3.024 11.864-3.024s1.232 10.452-1.601 13.286a7.259 7.259 0 0 1-9.25.845l2.278-2.796 3.642-.786-2.973-.297 1.89-1.924 2.15-.472-1.7-.503 1.7-3.068-2.419 2.713-.934-1.318.329 2.176-1.685 1.9-.781-2.403v3.196l-2.347 2.895Z" clip-rule="evenodd"/>
</svg>
