<svg xmlns="http://www.w3.org/2000/svg" width="30" height="30" fill="none" viewBox="0 0 30 30">
  <path fill="#DA7C4D" d="M30 15c0 8.284-6.716 15-15 15-8.284 0-15-6.716-15-15C0 6.716 6.716 0 15 0c8.284 0 15 6.716 15 15Z"/>
  <path fill="#fff" fill-rule="evenodd" d="M10.524 20.742a.006.006 0 0 1-.006-.008l4.085-11.542c0-.003.003-.005.006-.005h4.36c.003 0 .005.002.006.005L23 20.734a.006.006 0 0 1-.006.008h-12.47Zm-3.518.046A.006.006 0 0 1 7 20.779l3.042-8.121c.001-.002.004-.004.006-.004h2.643c.005 0 .008.004.006.008l-2.941 8.121a.006.006 0 0 1-.006.005H7.006Z" clip-rule="evenodd"/>
</svg>
