<svg xmlns="http://www.w3.org/2000/svg" width="30" height="30" fill="none" viewBox="0 0 30 30">
  <path fill="#75D0C1" d="M30 15c0 8.284-6.716 15-15 15-8.284 0-15-6.716-15-15C0 6.716 6.716 0 15 0c8.284 0 15 6.716 15 15Z"/>
  <path fill="#fff" fill-rule="evenodd" d="m19.01 8.22.049 4.323-3.771 1.81-.047-4.081L19.01 8.22Zm3.78 6.813-3.733 2.135-3.735-2.139 3.733-1.96 3.735 1.964Zm-8.132 0-3.733 2.135-3.736-2.139 3.734-1.96 3.735 1.964Zm-3.775-6.831 3.874 1.92-.099 4.181L11 12.491l-.117-4.289Zm8.232 13.596-3.875-1.92.1-4.181 3.658 1.812.117 4.289Zm-8.099.039-.049-4.324 3.771-1.81.047 4.082-3.769 2.052Z" clip-rule="evenodd"/>
</svg>
