<svg xmlns="http://www.w3.org/2000/svg" width="30" height="30" fill="none" viewBox="0 0 30 30">
  <path fill="#B763CF" d="M30 15c0 8.284-6.716 15-15 15-8.284 0-15-6.716-15-15C0 6.716 6.716 0 15 0c8.284 0 15 6.716 15 15Z"/>
  <path fill="#fff" fill-rule="evenodd" d="M20.37 19.295c1.615-1.292 2.63-3.158 2.63-5.234C23 10.16 19.418 7 15 7s-8 3.161-8 7.06c0 2.002.943 3.808 2.458 5.093a3.68 3.68 0 0 0-.142 1.023c0 1.56.942 2.824 2.105 2.824.756 0 1.418-.534 1.79-1.336C13.58 22.466 14.245 23 15 23c.689 0 1.3-.444 1.684-1.13.384.686.996 1.13 1.684 1.13 1.163 0 2.106-1.265 2.106-2.824 0-.308-.037-.604-.105-.88Zm-.738-5.094c0 1.98-2.121 3.585-4.737 3.585s-4.737-1.605-4.737-3.585 2.12-3.585 4.737-3.585c2.616 0 4.737 1.605 4.737 3.585Z" clip-rule="evenodd"/>
</svg>
