<svg xmlns="http://www.w3.org/2000/svg" width="30" height="30" fill="none" viewBox="0 0 30 30">
  <path fill="#C9BB8A" d="M30 15c0 8.284-6.716 15-15 15-8.284 0-15-6.716-15-15C0 6.716 6.716 0 15 0c8.284 0 15 6.716 15 15Z"/>
  <path fill="#fff" fill-rule="evenodd" d="m19.348 14.649-.001-.005 1.02-5.952c.001-.002.004-.005.006-.005h.323c.003 0 .005.002.006.004l2.3 7.282c0 .002 0 .005-.002.006l-1.696 1.324a.006.006 0 0 1-.008-.001l-1.948-2.653Zm-12.38 3.945c0 .003.002.005.005.006l3.495 1.143.005-.001 7.813-5.394.002-.004.838-5.621a.006.006 0 0 0-.006-.007H12.2l-.004.002-5.226 6.304-.001.004v3.568Zm4.957 1.44 3.818 1.25h.005l4.546-3.261a.006.006 0 0 0 .002-.008l-1.704-2.536a.006.006 0 0 0-.008-.002l-6.66 4.557Z" clip-rule="evenodd"/>
</svg>
