<svg xmlns="http://www.w3.org/2000/svg" width="30" height="30" fill="none" viewBox="0 0 30 30">
  <path fill="#5695A3" d="M30 15c0 8.284-6.716 15-15 15-8.284 0-15-6.716-15-15C0 6.716 6.716 0 15 0c8.284 0 15 6.716 15 15Z"/>
  <path fill="#fff" fill-rule="evenodd" d="M7.002 14.954a.012.012 0 0 1 0-.012l4.023-6.874a.012.012 0 0 1 .01-.005h7.974c.004 0 .008.002.01.005L23 14.942a.012.012 0 0 1 0 .012l-3.98 6.866a.012.012 0 0 1-.01.006h-7.974a.012.012 0 0 1-.01-.006l-4.023-6.866Zm11.705-.01a3.705 3.705 0 1 1-7.411 0 3.705 3.705 0 0 1 7.41 0Z" clip-rule="evenodd"/>
</svg>
