<svg xmlns="http://www.w3.org/2000/svg" width="30" height="30" fill="none" viewBox="0 0 30 30">
  <path fill="#539DDF" d="M30 15c0 8.284-6.716 15-15 15-8.284 0-15-6.716-15-15C0 6.716 6.716 0 15 0c8.284 0 15 6.716 15 15Z"/>
  <path fill="#fff" fill-rule="evenodd" d="M20.193 17.829c0 2.855-2.324 5.17-5.19 5.17-2.867 0-5.19-2.315-5.19-5.17 0-2.778 4.909-10.406 5.178-10.822.006-.01.017-.01.023 0 .27.416 5.179 8.044 5.179 10.822Zm-6.056 3.513c-2.633-.577-2.183-3.494-2.183-3.494s.72 1.761 2.465 2.332c1.745.57 3.854-.267 3.854-.267s-1.502 2.005-4.136 1.429Z" clip-rule="evenodd"/>
</svg>
